{
    "asset" : {
        "generator" : "Khronos glTF Blender I/O v3.3.27",
        "version" : "2.0"
    },
    "scene" : 0,
    "scenes" : [
        {
            "name" : "Scene",
            "nodes" : [
                0
            ]
        }
    ],
    "nodes" : [
        {
            "mesh" : 0,
            "name" : "Text"
        }
    ],
    "meshes" : [
        {
            "name" : "Text",
            "primitives" : [
                {
                    "attributes" : {
                        "POSITION" : 0,
                        "NORMAL" : 1,
                        "TEXCOORD_0" : 2
                    },
                    "indices" : 3
                }
            ]
        }
    ],
    "accessors" : [
        {
            "bufferView" : 0,
            "componentType" : 5126,
            "count" : 3354,
            "max" : [
                0.22945287823677063,
                0.09999998658895493,
                0.16935469210147858
            ],
            "min" : [
                -0.215423122048378,
                -0.09999998658895493,
                -0.19211463630199432
            ],
            "type" : "VEC3"
        },
        {
            "bufferView" : 1,
            "componentType" : 5126,
            "count" : 3354,
            "type" : "VEC3"
        },
        {
            "bufferView" : 2,
            "componentType" : 5126,
            "count" : 3354,
            "type" : "VEC2"
        },
        {
            "bufferView" : 3,
            "componentType" : 5123,
            "count" : 6420,
            "type" : "SCALAR"
        }
    ],
    "bufferViews" : [
        {
            "buffer" : 0,
            "byteLength" : 40248,
            "byteOffset" : 0,
            "target" : 34962
        },
        {
            "buffer" : 0,
            "byteLength" : 40248,
            "byteOffset" : 40248,
            "target" : 34962
        },
        {
            "buffer" : 0,
            "byteLength" : 26832,
            "byteOffset" : 80496,
            "target" : 34962
        },
        {
            "buffer" : 0,
            "byteLength" : 12840,
            "byteOffset" : 107328,
            "target" : 34963
        }
    ],
    "buffers" : [
        {
            "byteLength" : 120168,
            "uri" : "data:application/octet-stream;base64,"
        }
    ]
}
